<?xml version="1.0" standalone="no"?>
<!DOCTYPE svg PUBLIC "-//W3C//DTD SVG 1.1//EN"
  "http://www.w3.org/Graphics/SVG/1.1/DTD/svg11.dtd">
<svg version="1.1" xmlns="http://www.w3.org/2000/svg" xmlns:xlink="http://www.w3.org/1999/xlink" width="1792" height="1063" viewBox="-992 -32 1792 1063" id="ccdiagram"><filter id="grayscale"><feColorMatrix type="matrix" values="0.3333 0.3333 0.3333 0 0 0.3333 0.3333 0.3333 0 0 0.3333 0.3333 0.3333 0 0 0 0 0 1 0"></feColorMatrix></filter><defs><style type="text/css">@import url('https://fonts.googleapis.com/css?family=Open+Sans:400,700|Inconsolata:400');</style></defs><g><g pointer-events="auto"><g opacity="1"><g><g><polygon points="-64 185, 384 444, 384 481, -96 759, -160 759, -608 500, -608 463, -128 185" fill="#ffffff" stroke-width="2" stroke="#818181"></polygon><polygon points="-96 204, 352 463, -128 740, -576 481" fill="#e6e7e8" stroke-width="0" stroke="#818181"></polygon></g></g></g><g opacity="1"><g><g><polygon points="-96 352, 96 463, 96 500, -96 611, -160 611, -352 500, -352 463, -160 352" fill="#86b0d4" stroke-width="2" stroke="#818181"></polygon><polygon points="-128 370, 64 481, -128 592, -320 481" fill="#ffffff" stroke-width="0" stroke="#818181"></polygon></g></g></g></g><g pointer-events="auto"></g><g></g><g pointer-events="auto"></g><g></g><g pointer-events="auto"></g><g pointer-events="none"></g><g pointer-events="auto"><g><g cursor="cell"><line x1="-476" y1="682" x2="-186" y2="514" stroke="red" stroke-width="8" opacity="0"></line><line x1="-476" y1="682" x2="-186" y2="514" stroke="#000000" stroke-width="2" stroke-linecap="round"></line><polygon points="-176 509, -202 514, -188 516, -185 524, -176 509" stroke-linejoin="round" fill="#000000" stroke="#000000" stroke-width="1"></polygon></g></g><g><g cursor="cell"><line x1="-64" y1="444" x2="182" y2="302" stroke="red" stroke-width="8" opacity="0"></line><line x1="-64" y1="444" x2="182" y2="302" stroke="#000000" stroke-width="2" stroke-linecap="round"></line><polygon points="192 296, 166 301, 180 303, 183 311, 192 296" stroke-linejoin="round" fill="#000000" stroke="#000000" stroke-width="1"></polygon></g></g></g><g pointer-events="auto"><g opacity="1"><g id="65f10d34-c69f-4aff-91c0-f1045bd1e228" transform="translate(0 0)"><g><polygon points="240 194, 304 231, 240 268, 176 231" fill="#fff"></polygon><polygon points="176 268, 240 305, 240 268, 176 231" fill="#e6e6e6" stroke="#999"></polygon><polygon points="240 305, 304 268, 304 231, 240 268" fill="#ccc" stroke="#999"></polygon><polygon points="240 194, 176 231, 176 268, 240 305, 304 268, 304 231" fill="none" stroke="#000000" stroke-width="2"></polygon></g></g></g><g opacity="1"><g id="c626754b-2d08-4976-9183-86ce16a37645" transform="translate(0 0)"><g><polygon points="-128 407, -64 444, -128 481, -192 444" fill="#fff"></polygon><polygon points="-192 481, -128 518, -128 481, -192 444" fill="#e6e6e6" stroke="#999"></polygon><polygon points="-128 518, -64 481, -64 444, -128 481" fill="#ccc" stroke="#999"></polygon><polygon points="-128 407, -192 444, -192 481, -128 518, -64 481, -64 444" fill="none" stroke="#000000" stroke-width="2"></polygon></g></g></g><g opacity="1"><g id="359d0f00-ee00-4539-af0b-9d3a154cb194" transform="translate(0 0)"><svg x="-446" y="557" height="108.05" width="123" viewBox="0 0 32.544 28.588"><path d="M10.115 6.02v14.218l7.873-4.318V1.474z" fill="#ccc" fill-rule="evenodd" stroke="#999" stroke-width=".268"></path><path d="M.265 2.228l9.85 3.791v14.219l-9.85-8.531z" fill="#e6e6e6" fill-rule="evenodd" stroke="#999" stroke-width=".265"></path><path d="M10.115 6.02l7.873-4.546L3.548.332.265 2.228z" fill="#fff" fill-rule="evenodd" stroke="#999" stroke-width=".265"></path><path d="M.265 11.707l9.85 8.53 7.873-4.317V1.474L3.392.271.265 2.076z" fill="none" fill-rule="evenodd" stroke="#000000" stroke-width=".529"></path><path d="M22.429 3.65L14.22 8.39l14.828 10.397 3.231-1.866z" fill="#fff" fill-rule="evenodd" stroke="#999" stroke-width=".268"></path><path d="M14.22 8.39V22.61l14.777 5.687.051-9.509z" fill="#e6e6e6" fill-rule="evenodd" stroke="#999" stroke-width=".265"></path><path d="M29.048 18.787l3.231-1.866V26.4l-3.282 1.897z" fill="#ccc" fill-rule="evenodd" stroke="#999" stroke-width=".265"></path><path d="M22.429 3.65L14.22 8.39V22.61l14.777 5.687 3.282-1.897v-9.478z" fill="none" fill-rule="evenodd" stroke="#000000" stroke-width=".529"></path><path d="M25.604 20.872c-.071-.975-.928-2.116-1.982-2.599a2.547 2.547 0 0 0-.398-.144c-.566-.91-1.446-1.74-2.441-2.195-1.501-.687-2.76-.293-3.057.872-1.062-.091-1.77.532-1.77 1.597 0 1.436 1.27 3.181 2.84 3.899l5.961 2.73c1.41.645 2.555.121 2.555-1.17 0-1.004-.695-2.2-1.708-2.99zm-.847 3.38l-5.962-2.73c-1.098-.502-1.987-1.723-1.987-2.729 0-.916.74-1.336 1.704-1.022v-.018c0-1.148 1.016-1.613 2.27-1.04.95.435 1.763 1.34 2.102 2.252.198-.065.456-.041.738.088.626.287 1.135.986 1.135 1.56a.657.657 0 0 1-.156.454c.052.019.105.042.156.065.94.43 1.704 1.479 1.704 2.34 0 .86-.763 1.21-1.704.78z" fill="#4286c5" stroke-width=".017"></path></svg></g></g><g opacity="1"><g id="813c56d3-686c-4074-82eb-aa0232303c6a" transform="translate(0 0)"><svg x="-536" y="617" height="95.068" width="63" viewBox="0 0 16.669 25.153"><path d="M16.668 22.903q0 1.64-.864 2.091-.865.451-2.297-.376L3.161 18.645q-1.433-.827-2.297-2.276Q.001 14.921 0 13.28q0-.723.042-1.39.042-.666.166-1.394.124-.727.313-1.302.19-.575.51-1.039.319-.464.733-.683.414-.22 1.012-.147.598.073 1.32.49.107.06.497.58.391.52.882 1.165.491.646 1.279 1.394.788.75 1.58 1.207.793.458 1.58.618.788.161 1.28.083.49-.079.881-.147.39-.069.497-.007.722.416 1.32 1.035.598.619 1.013 1.315.414.697.734 1.531t.509 1.627q.19.793.313 1.664.124.872.166 1.586.042.713.042 1.438zM12.88 8.51q0 2.173-1.332 2.942-1.332.769-3.214-.318-1.882-1.086-3.214-3.393Q3.79 5.434 3.79 3.26q0-2.173 1.331-2.942 1.332-.77 3.214.317t3.214 3.394q1.332 2.306 1.332 4.48z" fill="#000" stroke="#000000" stroke-width=".268"></path></svg></g></g></g><g pointer-events="auto"></g><g pointer-events="auto"><g opacity="1"><g id="9ac8aeb1-4f79-4f93-b48a-35018f23daea" transform="translate(0 0)"><svg x="240" y="231" overflow="visible"><g transform="scale(1.3975424859373686) matrix(0.707 0.409 -0.707 0.409 0 0)"><circle cx="0" cy="0" fill="#000000" r="23"></circle><svg width="32" height="32" x="-16" y="-16" style="fill: rgb(255, 255, 255);"><svg xmlns="http://www.w3.org/2000/svg" width="32" height="32" viewBox="0 0 32 32"><path d="M2.286 25.143h18.286v-2.286H2.286v2.286zm0-9.143h18.286v-2.286H2.286V16zm28 8a1.715 1.715 0 1 0-3.43.002 1.715 1.715 0 0 0 3.43-.002zm-28-17.143h18.286V4.571H2.286v2.286zm28 8a1.715 1.715 0 1 0-3.43.002 1.715 1.715 0 0 0 3.43-.002zm0-9.143a1.715 1.715 0 1 0-3.43.002 1.715 1.715 0 0 0 3.43-.002zM32 20.571v6.857H0v-6.857h32zm0-9.142v6.857H0v-6.857h32zm0-9.143v6.857H0V2.286h32z"></path></svg></svg></g></svg></g></g><g opacity="1"><g id="5939d19f-db30-4054-82c4-5ffbd1e0e28b" transform="translate(0 0)"><svg x="-288" y="574" overflow="visible"><g transform="scale(1.118033988749895) matrix(0.707 0.409 -0.707 0.409 0 0)"><circle cx="0" cy="0" fill="#000000" r="23"></circle><svg width="25" height="32" x="-12.5" y="-16" style="fill: rgb(255, 255, 255);"><svg xmlns="http://www.w3.org/2000/svg" width="25" height="32" viewBox="0 0 25 32"><path d="M25.143 30.286v1.143a.587.587 0 0 1-.571.571h-24a.587.587 0 0 1-.571-.571v-1.143c0-.304.268-.571.571-.571h24c.304 0 .571.268.571.571zm-4.572-18.857c0 6.839-8 7.446-8 12 0 1.25.625 2.911 1.196 4l-.071-.018.018.018C8.785 25.161 4.571 22.036 4.571 16c0-6.839 8-7.446 8-12 0-1.25-.625-2.911-1.179-4l.054.018L11.428 0c4.929 2.268 9.143 5.393 9.143 11.429z"></path></svg></svg></g></svg></g></g></g><g pointer-events="auto"><g opacity="1"><g id="bcca04ee-488f-40cb-b5ae-28d266075fcd"><svg x="-144" y="416" overflow="visible"><text stroke="#ffffff" stroke-width="4" font-family="Open Sans" y="36.5" font-size="25pt" fill="#000000" font-weight="bold" transform="matrix(0.707 0.409 -0.707 0.409 0 0)" xml:space="preserve"><tspan x="8" dy="0">SFTP</tspan></text><text font-family="Open Sans" y="36.5" font-size="25pt" fill="#000000" font-weight="bold" transform="matrix(0.707 0.409 -0.707 0.409 0 0)" xml:space="preserve"><tspan x="8" dy="0">SFTP</tspan></text></svg></g></g><g opacity="1"><g id="1820ab4b-70fb-48a6-83c9-45802b1c88e2" transform="translate(0 0)"><svg x="-176" y="712" overflow="visible"><text stroke="#ffffff" stroke-width="4" font-family="Open Sans" y="36.5" font-size="25pt" fill="#000000" font-weight="bold" transform="matrix(0.707 0.409 -0.707 0.409 0 0)" xml:space="preserve"><tspan x="8" dy="0">vpc</tspan></text><text font-family="Open Sans" y="36.5" font-size="25pt" fill="#000000" font-weight="bold" transform="matrix(0.707 0.409 -0.707 0.409 0 0)" xml:space="preserve"><tspan x="8" dy="0">vpc</tspan></text></svg></g></g><g opacity="1"><g id="9d51e024-dc62-4810-99fa-c48efc00b452" transform="translate(0 0)"><svg x="-224" y="537" overflow="visible"><text stroke="#ffffff" stroke-width="4" font-family="Open Sans" y="36.5" font-size="25pt" fill="#000000" font-weight="bold" transform="matrix(0.707 0.409 -0.707 0.409 0 0)" xml:space="preserve"><tspan x="8" dy="0">subnet</tspan></text><text font-family="Open Sans" y="36.5" font-size="25pt" fill="#000000" font-weight="bold" transform="matrix(0.707 0.409 -0.707 0.409 0 0)" xml:space="preserve"><tspan x="8" dy="0">subnet</tspan></text></svg></g></g><g opacity="1"><g id="14bd3d90-6e47-4c85-b6a9-ba9828e43b4a" transform="translate(0 0)"><svg x="-16" y="379" overflow="visible"><text stroke="#ffffff" stroke-width="4" font-family="Open Sans" y="36.5" font-size="25pt" fill="#000000" font-weight="bold" transform="matrix(0.707 -0.409 0.707 0.409 0 0)" xml:space="preserve"><tspan x="8" dy="0">incron</tspan></text><text font-family="Open Sans" y="36.5" font-size="25pt" fill="#000000" font-weight="bold" transform="matrix(0.707 -0.409 0.707 0.409 0 0)" xml:space="preserve"><tspan x="8" dy="0">incron</tspan></text></svg></g></g><g opacity="1"><g id="0d40c041-d47b-4801-93a6-863358ab9033"><svg x="176" y="231" overflow="visible"><text stroke="#ffffff" stroke-width="4" font-family="Open Sans" y="36.5" font-size="25pt" fill="#000000" font-weight="bold" transform="matrix(0.707, 0.409, 0, 0.816, 0, 0)" xml:space="preserve"><tspan x="8" dy="0">GCS</tspan></text><text font-family="Open Sans" y="36.5" font-size="25pt" fill="#000000" font-weight="bold" transform="matrix(0.707, 0.409, 0, 0.816, 0, 0)" xml:space="preserve"><tspan x="8" dy="0">GCS</tspan></text></svg></g></g></g><g></g></g></svg>